<?xml version="1.0" encoding="UTF-8"?>
<svg id="Layer_1" data-name="Layer 1" xmlns="http://www.w3.org/2000/svg" xmlns:xlink="http://www.w3.org/1999/xlink" viewBox="0 0 167.42 117">
  <defs>
    <style>
      .cls-1 {
        fill: none;
        stroke: url(#linear-gradient-2);
        stroke-miterlimit: 11.34;
      }

      .cls-2 {
        fill: #b48d2e;
        font-family: EthiopicDireDawa, 'Ethiopic Dire Dawa';
        font-size: 34.8px;
      }

      .cls-3 {
        fill: url(#linear-gradient);
      }
    </style>
    <linearGradient id="linear-gradient" x1="31.64" y1="89.05" x2="151.84" y2="89.05" gradientUnits="userSpaceOnUse">
      <stop offset="0" stop-color="#f2d57f"/>
      <stop offset=".5" stop-color="#d4af35"/>
      <stop offset="1" stop-color="#8c6c29"/>
    </linearGradient>
    <linearGradient id="linear-gradient-2" x1="0" y1="58.5" x2="167.42" y2="58.5" gradientUnits="userSpaceOnUse">
      <stop offset="0" stop-color="#f2d57e"/>
      <stop offset=".08" stop-color="#edcf73"/>
      <stop offset=".23" stop-color="#e2c156"/>
      <stop offset=".38" stop-color="#d3ae31"/>
      <stop offset="1" stop-color="#8c6d2a"/>
    </linearGradient>
  </defs>
  <image width="433" height="681" transform="translate(59.43 9.42) scale(.11)" xlink:href="../../../../../Downloads/Harvest Gold.png"/>
  <g>
    <g>
      <path class="cls-3" d="M32.48,98.46c0-.37,.23-.63,.68-.77,.45-.14,1.02-.24,1.69-.31,.67-.07,1.41-.15,2.2-.23,.79-.08,1.52-.24,2.2-.49,.67-.24,1.24-.61,1.69-1.1,.45-.49,.68-1.17,.68-2.05,0-.67-.22-1.22-.65-1.65-.43-.43-.97-.8-1.62-1.11-.65-.31-1.36-.61-2.13-.89-.77-.28-1.48-.6-2.13-.96-.65-.36-1.19-.79-1.62-1.3-.43-.51-.64-1.16-.64-1.95,0-1.14,.27-2.1,.8-2.91,.53-.8,1.22-1.44,2.06-1.93,.84-.49,1.77-.84,2.79-1.06,1.02-.22,2.01-.33,2.96-.33h2.02c.23-.05,.4-.03,.51,.05,.1,.08,.17,.18,.21,.3,.04,.12,.05,.25,.04,.4-.01,.15-.02,.27-.02,.37s0,.21,.02,.35c.01,.14,0,.27-.04,.4-.03,.13-.1,.23-.21,.3s-.27,.08-.51,.04c-.65-.05-1.44-.06-2.35-.04-.92,.02-1.8,.16-2.65,.4-.85,.24-1.57,.64-2.16,1.18-.59,.54-.89,1.32-.89,2.31,0,.6,.21,1.11,.63,1.53,.42,.42,.94,.79,1.57,1.13,.63,.34,1.3,.66,2.02,.97,.72,.31,1.39,.67,2.02,1.08s1.15,.89,1.57,1.44,.63,1.25,.63,2.09c0,1.18-.27,2.15-.82,2.91-.55,.75-1.25,1.35-2.13,1.78s-1.85,.73-2.95,.89c-1.09,.16-2.19,.24-3.28,.24-.19,0-.41,0-.66-.02-.26-.01-.49-.05-.71-.12-.22-.07-.41-.17-.58-.31-.16-.14-.24-.35-.24-.63Z"/>
      <path class="cls-3" d="M46.04,92.47c-.09-1.07,.07-2.08,.49-3.04,.42-.96,.99-1.8,1.73-2.51,.73-.71,1.59-1.27,2.58-1.69,.99-.42,2-.63,3.05-.63,.84,0,1.62,.21,2.34,.63,.72,.42,1.34,.95,1.87,1.6s.94,1.37,1.25,2.16c.31,.79,.49,1.54,.54,2.26,.09,1.14-.01,2.22-.31,3.25-.3,1.03-.78,1.95-1.43,2.75-.65,.8-1.46,1.44-2.44,1.91-.98,.47-2.1,.71-3.38,.71-.95,0-1.8-.23-2.54-.7s-1.38-1.06-1.92-1.78c-.54-.72-.95-1.51-1.26-2.38-.3-.87-.49-1.72-.56-2.56Zm3.03,.8c.02,.42,.11,.87,.26,1.36,.15,.49,.36,.93,.63,1.34,.27,.41,.59,.75,.98,1.03,.38,.28,.84,.42,1.38,.42,.74,0,1.44-.2,2.07-.59,.64-.39,1.19-.89,1.64-1.5,.45-.6,.8-1.26,1.05-1.98s.34-1.42,.3-2.09c-.05-.67-.15-1.27-.31-1.79-.16-.52-.4-.96-.71-1.31-.31-.35-.73-.61-1.24-.78-.51-.17-1.13-.26-1.85-.26s-1.39,.21-1.93,.64c-.55,.43-.99,.96-1.34,1.58-.35,.63-.6,1.3-.75,2.02-.15,.72-.2,1.36-.16,1.91Z"/>
      <path class="cls-3" d="M62.11,85.86c-.07-.28-.06-.49,.02-.63,.08-.14,.19-.23,.33-.26,.14-.04,.29-.05,.45-.04,.16,.01,.3,.02,.42,.02,.05,0,.13-.01,.24-.04,.12-.02,.24-.02,.37,0,.13,.02,.25,.07,.37,.14,.12,.07,.2,.19,.24,.35-.02,.42-.06,1-.1,1.74-.05,.74-.06,1.55-.03,2.42,.02,.87,.09,1.76,.21,2.66,.12,.9,.32,1.73,.61,2.47,.29,.74,.67,1.35,1.15,1.81,.48,.46,1.1,.7,1.86,.7,.51,0,.95-.27,1.33-.8,.37-.53,.67-1.17,.91-1.9,.23-.73,.4-1.46,.51-2.19,.1-.73,.16-1.29,.16-1.69,0-.28-.02-.63-.05-1.06-.03-.43-.08-.87-.14-1.32-.06-.45-.1-.9-.14-1.34-.03-.44-.05-.8-.05-1.08,0-.46,.07-.77,.21-.91,.14-.14,.42-.21,.84-.21,.3,0,.57,.04,.8,.1,.23,.07,.44,.33,.63,.77,0,.12,0,.39-.02,.82-.01,.43-.02,.89-.02,1.37s0,.95-.02,1.38-.02,.7-.02,.82c0,.6-.01,1.26-.04,1.98-.02,.72-.09,1.45-.19,2.19-.1,.74-.26,1.46-.45,2.16-.2,.7-.47,1.31-.82,1.84-.35,.53-.78,.96-1.31,1.29s-1.16,.49-1.9,.49c-1.28,0-2.33-.35-3.16-1.06-.83-.71-1.47-1.6-1.93-2.68-.47-1.08-.79-2.26-.98-3.53-.19-1.28-.28-2.48-.28-3.62v-3.17Z"/>
      <path class="cls-3" d="M76.54,98.04v-1.34c0-.62-.01-1.31-.04-2.09s-.04-1.6-.05-2.45c-.01-.86-.03-1.68-.05-2.45-.02-.78-.04-1.47-.04-2.07v-1.36l.04-.42c.05-.44,.21-.77,.5-.99s.63-.33,1.03-.33,.71,.13,.94,.4,.45,.57,.66,.9c.21,.34,.45,.64,.73,.91,.28,.27,.66,.4,1.15,.4s.93-.16,1.33-.47c.39-.31,.78-.66,1.15-1.04,.37-.38,.73-.73,1.08-1.04,.35-.31,.72-.47,1.12-.47,.51,0,.88,.14,1.12,.42s.33,.64,.28,1.08c-.09,.88-.48,1.58-1.15,2.09-.67,.51-1.45,.9-2.32,1.18-.87,.28-1.75,.46-2.63,.54-.88,.08-1.57,.12-2.06,.12-.19,1.53-.26,3.01-.23,4.44,.04,1.43-.03,2.85-.19,4.26-.05,.44-.15,.73-.3,.87-.15,.14-.42,.21-.82,.21-.74,0-1.16-.43-1.25-1.29Z"/>
      <path class="cls-3" d="M88.99,92.82c0-1.32,.31-2.48,.94-3.48,.63-1,1.43-1.84,2.41-2.52,.98-.68,2.05-1.2,3.22-1.55,1.17-.35,2.29-.52,3.36-.52,.16,0,.33,0,.5,.02,.17,.01,.34,.05,.49,.1s.27,.16,.37,.3c.09,.14,.14,.34,.14,.59l-.07,1.5c-.46,.12-1,.23-1.62,.35-.62,.12-1.25,.25-1.9,.4-.65,.15-1.3,.34-1.93,.56-.64,.22-1.21,.5-1.71,.83-.5,.34-.9,.74-1.2,1.22-.3,.48-.45,1.04-.45,1.69,0,1.32,.31,2.3,.94,2.94,.63,.64,1.39,1.08,2.28,1.32,.89,.24,1.84,.35,2.84,.33s1.87-.04,2.62-.04c.33,.26,.53,.51,.63,.77,.09,.26,.14,.57,.14,.94,0,.12,0,.3,.02,.56,.01,.26-.09,.38-.3,.38l-6.55,.07c-.7,0-1.36-.22-1.99-.66-.63-.44-1.17-1-1.64-1.67s-.84-1.4-1.12-2.19c-.28-.79-.42-1.53-.42-2.23Z"/>
      <path class="cls-3" d="M103.67,79.42c.05-.49,.17-.77,.37-.85s.49-.12,.89-.12c.51,0,.91,.1,1.18,.3,.28,.2,.4,.55,.35,1.06-.07,.39-.21,.73-.44,.99-.22,.27-.53,.4-.92,.4-.51,0-.89-.18-1.13-.54s-.34-.77-.3-1.24Zm.24,18.72c-.02-.25-.03-.7-.03-1.32s0-1.34-.02-2.14c-.01-.8-.02-1.65-.04-2.54-.01-.89-.02-1.74-.04-2.54s-.02-1.51-.03-2.14c-.01-.63-.02-1.07-.02-1.32l.04-.38c.07-.39,.24-.68,.5-.87,.27-.18,.55-.28,.85-.28,.35,0,.63,.28,.84,.84,.21,.56,.37,1.26,.47,2.12,.11,.86,.16,1.81,.17,2.85,.01,1.04,0,2.05-.02,3.03s-.06,1.86-.12,2.64c-.06,.79-.1,1.35-.12,1.67-.02,.19-.04,.37-.05,.56-.01,.19-.04,.35-.09,.5-.05,.15-.14,.27-.28,.37s-.34,.14-.59,.14c-.4,0-.72-.09-.98-.28s-.41-.49-.45-.91Z"/>
      <path class="cls-3" d="M109.73,98.14c-.02-.3-.04-.78-.05-1.43-.01-.65-.02-1.37-.02-2.17v-5.06c0-.81,0-1.54-.02-2.17-.01-.64-.02-1.12-.02-1.44l.04-.42c.02-.44,.19-.77,.49-.97,.3-.21,.66-.31,1.08-.31,.33,0,.6,.04,.82,.1s.42,.31,.61,.73c1.35-.21,2.49-.17,3.42,.1,.93,.28,1.69,.74,2.28,1.38,.59,.64,1.05,1.41,1.36,2.31,.31,.9,.53,1.87,.65,2.89,.12,1.02,.16,2.08,.14,3.17-.02,1.09-.07,2.12-.14,3.1-.05,.53-.12,.92-.23,1.15-.11,.23-.42,.35-.96,.35-.42,0-.73-.13-.92-.38-.2-.25-.34-.6-.44-1.04,.05-.16,.1-.54,.17-1.13s.12-1.27,.14-2.04c.02-.77,0-1.58-.05-2.44s-.19-1.65-.4-2.37c-.21-.72-.52-1.31-.94-1.78-.42-.46-.98-.7-1.67-.7-.42,0-.88-.05-1.38-.16s-.97-.05-1.41,.16c0,.05,0,.18-.02,.4-.01,.22-.02,.45-.04,.7-.01,.24-.02,.48-.04,.7s-.02,.37-.02,.43c-.09,1.37-.09,2.67,0,3.92s.09,2.55,0,3.92c0,.12,0,.35,.02,.7,.01,.35,.02,.58,.02,.7-.23,.21-.45,.33-.66,.37-.21,.03-.43,.05-.66,.05-.42,0-.7-.13-.84-.4-.14-.27-.24-.56-.31-.89Z"/>
      <path class="cls-3" d="M123.19,103.82c.05-.56,.29-.94,.73-1.15s.99-.34,1.64-.4,1.35-.09,2.11-.1c.75-.01,1.45-.09,2.09-.24,.64-.15,1.17-.42,1.6-.82,.43-.39,.64-1.02,.64-1.88,0-.09,.03-.19,.09-.28,.06-.09,.09-.2,.09-.31-.05-.23-.09-.37-.12-.4-.04-.04-.15-.05-.33-.05-.28,0-.57,.05-.87,.14s-.61,.2-.92,.31c-.31,.12-.62,.22-.92,.31s-.59,.14-.87,.14c-.79,0-1.52-.24-2.2-.71-.67-.48-1.26-1.08-1.76-1.83-.5-.74-.88-1.55-1.13-2.42-.26-.87-.36-1.71-.31-2.52,.07-1.02,.29-1.97,.66-2.84,.37-.87,.86-1.62,1.46-2.25,.6-.63,1.3-1.12,2.09-1.48s1.63-.54,2.51-.54c.56,0,1.1,.16,1.64,.47,.53,.31,1.02,.72,1.46,1.22,.44,.5,.81,1.06,1.12,1.67,.3,.62,.5,1.22,.59,1.83,0,.33,0,.76,.02,1.3,.01,.55,.02,1.15,.02,1.81v2.05c0,.71,0,1.39,.02,2.04s.02,1.24,.02,1.76,.01,.92,.04,1.2l-.04,.24c-.05,.81-.28,1.5-.7,2.07-.42,.57-.94,1.03-1.55,1.38-.62,.35-1.31,.62-2.07,.82-.77,.2-1.53,.34-2.3,.42-.77,.08-1.49,.13-2.18,.16s-1.26,.04-1.73,.04c-.26-.19-.44-.35-.54-.5s-.13-.37-.09-.64Zm1.74-11.83c-.05,.6,.04,1.18,.26,1.72s.51,1.02,.87,1.43c.36,.41,.77,.73,1.24,.97,.46,.24,.94,.37,1.43,.37,.53,0,1.1-.14,1.69-.43s1.04-.7,1.34-1.24c0-.07,0-.17,.02-.31,.01-.14,.02-.29,.04-.45s.02-.31,.02-.45v-.28c.09-.97,.12-1.83,.07-2.56s-.19-1.4-.42-2c-.12-.3-.26-.54-.42-.71-.16-.17-.36-.31-.58-.42-.22-.1-.47-.18-.75-.23-.28-.05-.58-.09-.91-.14-.56,0-1.07,.14-1.53,.43s-.87,.67-1.2,1.13c-.34,.46-.61,.97-.82,1.53-.21,.56-.33,1.1-.35,1.64Z"/>
    </g>
    <text class="cls-2" transform="translate(31.64 99.43)"><tspan x="0" y="0">Sourcing</tspan></text>
  </g>
  <rect class="cls-1" x=".5" y=".5" width="166.42" height="116" rx="20" ry="20"/>
</svg>